<svg version="1.1" id="Layer_1" xmlns="http://www.w3.org/2000/svg" xmlns:xlink="http://www.w3.org/1999/xlink" x="0px" y="0px"
	 width="100%" viewBox="0 0 1536 1024" enable-background="new 0 0 1536 1024" xml:space="preserve">
<path fill="#000000" opacity="1.000000" stroke="none" 
	d="
M976.000000,1025.000000 
	C650.666687,1025.000000 325.833344,1025.000000 1.000000,1025.000000 
	C1.000000,683.666687 1.000000,342.333344 1.000000,1.000000 
	C513.000000,1.000000 1025.000000,1.000000 1537.000000,1.000000 
	C1537.000000,342.333344 1537.000000,683.666687 1537.000000,1025.000000 
	C1350.166626,1025.000000 1163.333374,1025.000000 976.000000,1025.000000 
M482.823090,448.833801 
	C482.823090,448.833801 482.534485,448.570465 482.434601,447.765228 
	C482.434601,442.191711 482.434601,436.618164 482.434601,431.336548 
	C468.240845,431.336548 455.164032,431.336548 442.315796,431.336548 
	C442.315796,506.396179 442.315796,581.118286 442.315796,655.683350 
	C455.706116,655.683350 468.776642,655.683350 482.239929,655.683350 
	C482.239929,628.358398 482.239929,601.349243 482.239929,573.846924 
	C483.980225,575.948181 485.170654,577.704102 486.666351,579.142456 
	C501.946594,593.836426 520.287659,598.110291 540.828369,595.063904 
	C564.719849,591.520447 581.780090,578.531250 593.084229,557.536743 
	C605.244141,534.952881 607.310364,510.879822 600.734741,486.631744 
	C592.422485,455.979492 575.395813,432.846497 541.270508,427.874847 
	C518.179077,424.510742 498.079895,429.930450 482.823090,448.833801 
M303.578888,590.009094 
	C304.492096,590.339294 305.390686,590.719360 306.320648,590.992371 
	C326.014252,596.773804 345.903381,597.103943 366.141998,594.104797 
	C400.661133,588.989380 426.571289,562.286560 425.020874,526.031433 
	C424.131073,505.224121 414.588776,489.578827 396.867340,479.036224 
	C382.538116,470.511658 366.230774,467.406342 350.421082,462.945953 
	C337.124573,459.194580 323.741638,455.577545 310.781616,450.847229 
	C293.278015,444.458557 296.830627,419.937042 308.190338,412.725952 
	C322.067047,403.917114 336.603790,403.348450 351.787415,406.754578 
	C364.978302,409.713715 375.367340,416.517914 380.211090,429.888245 
	C381.065979,432.248108 381.621582,434.716431 382.211884,436.773926 
	C396.556152,436.773926 410.176483,436.773926 424.303192,436.773926 
	C423.837799,434.240601 423.429901,432.018738 423.021332,429.796967 
	C418.825409,406.980286 406.456238,389.910889 386.074402,379.100250 
	C361.164246,365.887817 334.841461,365.026672 307.934021,371.749512 
	C281.126038,378.447510 256.939575,401.765320 258.786591,436.774445 
	C259.750031,455.035492 267.646851,468.238190 282.396912,478.198700 
	C298.651428,489.175140 317.175140,494.072632 335.760406,499.117767 
	C348.271301,502.513947 360.620422,506.635162 372.780945,511.137054 
	C378.645874,513.308289 382.651855,518.088318 384.023254,524.617065 
	C387.121033,539.364319 378.590210,550.158875 368.214813,554.872009 
	C355.884430,560.473267 342.840057,561.047485 329.489746,559.075867 
	C312.875641,556.622253 293.037537,543.015808 292.668182,521.314453 
	C279.475800,521.314453 266.282684,521.314453 252.942245,521.314453 
	C254.519974,533.751587 257.217407,545.510071 263.333252,556.231812 
	C272.433624,572.185852 285.760193,583.231689 303.578888,590.009094 
M833.000305,585.423096 
	C833.000244,571.257996 832.966248,557.092712 833.049255,542.928101 
	C833.058228,541.397278 833.263184,539.423340 834.197632,538.416138 
	C839.233887,532.988159 844.529297,527.800659 849.956848,522.305725 
	C850.795593,523.454163 851.286865,524.087158 851.736633,524.748413 
	C865.988953,545.708252 880.292053,566.633972 894.426758,587.672852 
	C896.542847,590.822449 898.737366,592.256165 902.714539,592.113037 
	C912.367554,591.765564 922.041565,592.000000 931.707092,592.000000 
	C935.404663,592.000000 939.102234,592.000000 943.447571,592.000000 
	C920.754822,559.139526 898.622009,527.089905 875.429749,493.506073 
	C897.062195,472.962189 918.374756,452.722046 939.687378,432.481934 
	C939.316528,431.988281 938.945679,431.494659 938.574890,431.001038 
	C924.476562,431.001038 910.375854,430.869659 896.282471,431.133820 
	C894.006226,431.176514 891.208130,432.426208 889.589722,434.052124 
	C871.609070,452.115906 853.816406,470.366730 835.958069,488.552399 
	C835.157104,489.368042 834.212646,490.042816 832.704834,491.314941 
	C832.704834,450.321655 832.704834,410.238586 832.704834,370.321350 
	C819.288147,370.321350 806.215637,370.321350 793.316711,370.321350 
	C793.316711,444.376099 793.316711,518.108826 793.316711,591.679504 
	C806.708008,591.679504 819.780029,591.679504 833.000244,591.679504 
	C833.000244,589.706055 833.000244,588.053040 833.000305,585.423096 
M1039.094849,548.465393 
	C1029.304810,565.816284 1000.109375,566.785156 986.362122,557.919067 
	C973.793396,549.813049 968.611450,537.737671 967.670288,522.926758 
	C1006.244446,522.926758 1044.672241,522.926758 1084.240601,522.926758 
	C1082.783569,510.645020 1082.352783,498.664062 1079.783447,487.160675 
	C1075.020264,465.834595 1063.842651,448.361389 1044.771362,436.728241 
	C1028.513184,426.810913 1010.790771,425.519653 992.384155,427.946136 
	C971.109802,430.750641 954.332825,440.830322 942.067932,458.376434 
	C925.506104,482.069672 922.492859,508.410187 928.489014,535.855774 
	C932.263794,553.133728 940.886658,568.398926 955.309082,579.125671 
	C982.167358,599.101746 1011.799866,600.912415 1042.282471,589.261780 
	C1063.722534,581.067139 1076.588501,564.669556 1082.237549,542.158081 
	C1068.666504,542.158081 1055.530518,542.158081 1042.465698,542.158081 
	C1041.506470,544.112976 1040.568970,546.023621 1039.094849,548.465393 
M624.477478,554.934265 
	C629.529419,564.014465 636.053711,571.950256 644.278625,578.223511 
	C664.626831,593.743408 687.499939,598.651062 712.653564,594.059814 
	C734.269775,590.114319 751.441040,579.565796 764.168823,561.545776 
	C778.307373,541.528564 781.430237,519.278503 777.991760,495.704407 
	C774.419189,471.210205 762.476807,451.818237 741.207397,438.835999 
	C723.405823,427.970367 703.921448,425.134277 683.349365,427.908112 
	C661.161072,430.899841 642.829224,440.626221 630.152893,459.148987 
	C609.398987,489.475098 608.264771,521.445618 624.477478,554.934265 
M1117.499756,591.999695 
	C1123.929443,591.999695 1130.359009,591.999695 1137.000122,591.999695 
	C1137.000122,561.301575 1137.057373,531.173279 1136.964844,501.045410 
	C1136.937622,492.189453 1139.368408,484.108795 1144.036377,476.738434 
	C1154.998535,459.429810 1180.259644,456.586884 1193.632568,471.208496 
	C1199.951416,478.117462 1201.858887,486.902985 1201.920532,495.885773 
	C1202.128662,526.201721 1202.000366,556.519958 1202.000610,586.837341 
	C1202.000610,588.450073 1202.000610,590.062744 1202.000610,591.773193 
	C1215.863892,591.773193 1229.264038,591.773193 1243.000732,591.773193 
	C1243.000732,589.922058 1243.000610,588.293457 1243.000610,586.664856 
	C1243.000366,556.680664 1243.138672,526.695374 1242.908447,496.712921 
	C1242.846436,488.627502 1242.297363,480.436829 1240.863770,472.494415 
	C1238.169067,457.565491 1231.242065,444.794647 1218.418457,436.057770 
	C1207.879150,428.877136 1195.958862,426.396179 1183.276001,426.972382 
	C1167.675903,427.681091 1153.933228,432.559845 1143.154785,444.298340 
	C1141.044434,446.596863 1139.229614,449.166870 1136.706665,452.328094 
	C1136.706665,444.652313 1136.706665,437.896423 1136.706665,431.316528 
	C1122.959351,431.316528 1109.557617,431.316528 1096.287842,431.316528 
	C1096.287842,485.020447 1096.287842,538.407043 1096.287842,591.999695 
	C1103.216431,591.999695 1109.858154,591.999695 1117.499756,591.999695 
z"/>
<path fill="#FEFEFE" opacity="1.000000" stroke="none" 
	d="
M303.179993,589.971741 
	C285.760193,583.231689 272.433624,572.185852 263.333252,556.231812 
	C257.217407,545.510071 254.519974,533.751587 252.942245,521.314453 
	C266.282684,521.314453 279.475800,521.314453 292.668182,521.314453 
	C293.037537,543.015808 312.875641,556.622253 329.489746,559.075867 
	C342.840057,561.047485 355.884430,560.473267 368.214813,554.872009 
	C378.590210,550.158875 387.121033,539.364319 384.023254,524.617065 
	C382.651855,518.088318 378.645874,513.308289 372.780945,511.137054 
	C360.620422,506.635162 348.271301,502.513947 335.760406,499.117767 
	C317.175140,494.072632 298.651428,489.175140 282.396912,478.198700 
	C267.646851,468.238190 259.750031,455.035492 258.786591,436.774445 
	C256.939575,401.765320 281.126038,378.447510 307.934021,371.749512 
	C334.841461,365.026672 361.164246,365.887817 386.074402,379.100250 
	C406.456238,389.910889 418.825409,406.980286 423.021332,429.796967 
	C423.429901,432.018738 423.837799,434.240601 424.303192,436.773926 
	C410.176483,436.773926 396.556152,436.773926 382.211884,436.773926 
	C381.621582,434.716431 381.065979,432.248108 380.211090,429.888245 
	C375.367340,416.517914 364.978302,409.713715 351.787415,406.754578 
	C336.603790,403.348450 322.067047,403.917114 308.190338,412.725952 
	C296.830627,419.937042 293.278015,444.458557 310.781616,450.847229 
	C323.741638,455.577545 337.124573,459.194580 350.421082,462.945953 
	C366.230774,467.406342 382.538116,470.511658 396.867340,479.036224 
	C414.588776,489.578827 424.131073,505.224121 425.020874,526.031433 
	C426.571289,562.286560 400.661133,588.989380 366.141998,594.104797 
	C345.903381,597.103943 326.014252,596.773804 306.320648,590.992371 
	C305.390686,590.719360 304.492096,590.339294 303.179993,589.971741 
z"/>
<path fill="#FEFEFE" opacity="1.000000" stroke="none" 
	d="
M483.107758,449.101410 
	C498.079895,429.930450 518.179077,424.510742 541.270508,427.874847 
	C575.395813,432.846497 592.422485,455.979492 600.734741,486.631744 
	C607.310364,510.879822 605.244141,534.952881 593.084229,557.536743 
	C581.780090,578.531250 564.719849,591.520447 540.828369,595.063904 
	C520.287659,598.110291 501.946594,593.836426 486.666351,579.142456 
	C485.170654,577.704102 483.980225,575.948181 482.239929,573.846924 
	C482.239929,601.349243 482.239929,628.358398 482.239929,655.683350 
	C468.776642,655.683350 455.706116,655.683350 442.315796,655.683350 
	C442.315796,581.118286 442.315796,506.396179 442.315796,431.336548 
	C455.164032,431.336548 468.240845,431.336548 482.434601,431.336548 
	C482.434601,436.618164 482.434601,442.191711 482.301880,448.404968 
	C482.202667,449.596893 482.236176,450.149109 482.350922,452.040009 
	C482.827057,450.191315 482.967407,449.646362 483.107758,449.101410 
M561.964722,526.142639 
	C563.846619,513.787537 564.309570,501.499969 560.004211,489.484711 
	C553.700195,471.891724 542.475830,463.516998 526.677673,462.140839 
	C508.716644,460.576233 494.619873,468.759521 487.434448,484.655701 
	C479.764008,501.624939 479.250092,519.261108 486.199066,536.512512 
	C495.555267,559.740234 524.406921,568.158081 544.832214,553.995728 
	C554.244385,547.469604 558.766479,537.643677 561.964722,526.142639 
z"/>
<path fill="#FFFFFF" opacity="1.000000" stroke="none" 
	d="
M833.000244,585.911560 
	C833.000244,588.053040 833.000244,589.706055 833.000244,591.679504 
	C819.780029,591.679504 806.708008,591.679504 793.316711,591.679504 
	C793.316711,518.108826 793.316711,444.376099 793.316711,370.321350 
	C806.215637,370.321350 819.288147,370.321350 832.704834,370.321350 
	C832.704834,410.238586 832.704834,450.321655 832.704834,491.314941 
	C834.212646,490.042816 835.157104,489.368042 835.958069,488.552399 
	C853.816406,470.366730 871.609070,452.115906 889.589722,434.052124 
	C891.208130,432.426208 894.006226,431.176514 896.282471,431.133820 
	C910.375854,430.869659 924.476562,431.001038 938.574890,431.001038 
	C938.945679,431.494659 939.316528,431.988281 939.687378,432.481934 
	C918.374756,452.722046 897.062195,472.962189 875.429749,493.506073 
	C898.622009,527.089905 920.754822,559.139526 943.447571,592.000000 
	C939.102234,592.000000 935.404663,592.000000 931.707092,592.000000 
	C922.041565,592.000000 912.367554,591.765564 902.714539,592.113037 
	C898.737366,592.256165 896.542847,590.822449 894.426758,587.672852 
	C880.292053,566.633972 865.988953,545.708252 851.736633,524.748413 
	C851.286865,524.087158 850.795593,523.454163 849.956848,522.305725 
	C844.529297,527.800659 839.233887,532.988159 834.197632,538.416138 
	C833.263184,539.423340 833.058228,541.397278 833.049255,542.928101 
	C832.966248,557.092712 833.000244,571.257996 833.000244,585.911560 
z"/>
<path fill="#FEFEFE" opacity="1.000000" stroke="none" 
	d="
M1039.363281,548.199829 
	C1040.568970,546.023621 1041.506470,544.112976 1042.465698,542.158081 
	C1055.530518,542.158081 1068.666504,542.158081 1082.237549,542.158081 
	C1076.588501,564.669556 1063.722534,581.067139 1042.282471,589.261780 
	C1011.799866,600.912415 982.167358,599.101746 955.309082,579.125671 
	C940.886658,568.398926 932.263794,553.133728 928.489014,535.855774 
	C922.492859,508.410187 925.506104,482.069672 942.067932,458.376434 
	C954.332825,440.830322 971.109802,430.750641 992.384155,427.946136 
	C1010.790771,425.519653 1028.513184,426.810913 1044.771362,436.728241 
	C1063.842651,448.361389 1075.020264,465.834595 1079.783447,487.160675 
	C1082.352783,498.664062 1082.783569,510.645020 1084.240601,522.926758 
	C1044.672241,522.926758 1006.244446,522.926758 967.670288,522.926758 
	C968.611450,537.737671 973.793396,549.813049 986.362122,557.919067 
	C1000.109375,566.785156 1029.304810,565.816284 1039.363281,548.199829 
M1013.366760,459.975739 
	C990.998291,454.588989 967.556824,471.700378 968.440735,492.615356 
	C992.589417,492.615356 1016.732117,492.615356 1040.919800,492.615356 
	C1038.270630,472.203735 1027.093506,463.174896 1013.366760,459.975739 
z"/>
<path fill="#FEFEFE" opacity="1.000000" stroke="none" 
	d="
M624.265869,554.621643 
	C608.264771,521.445618 609.398987,489.475098 630.152893,459.148987 
	C642.829224,440.626221 661.161072,430.899841 683.349365,427.908112 
	C703.921448,425.134277 723.405823,427.970367 741.207397,438.835999 
	C762.476807,451.818237 774.419189,471.210205 777.991760,495.704407 
	C781.430237,519.278503 778.307373,541.528564 764.168823,561.545776 
	C751.441040,579.565796 734.269775,590.114319 712.653564,594.059814 
	C687.499939,598.651062 664.626831,593.743408 644.278625,578.223511 
	C636.053711,571.950256 629.529419,564.014465 624.265869,554.621643 
M728.443481,545.841553 
	C740.116943,528.644287 741.772278,509.824890 735.666870,490.608795 
	C730.515381,474.394989 718.706787,464.489044 701.599182,462.111877 
	C685.025146,459.808807 669.884460,467.781921 661.670471,482.953644 
	C653.854492,497.390106 653.170837,512.759033 656.732361,528.542786 
	C659.231323,539.617371 664.841919,548.535400 674.221741,555.056580 
	C688.552856,565.020020 714.648682,563.124146 728.443481,545.841553 
z"/>
<path fill="#FFFFFF" opacity="1.000000" stroke="none" 
	d="
M1116.999878,591.999695 
	C1109.858154,591.999695 1103.216431,591.999695 1096.287842,591.999695 
	C1096.287842,538.407043 1096.287842,485.020447 1096.287842,431.316528 
	C1109.557617,431.316528 1122.959351,431.316528 1136.706665,431.316528 
	C1136.706665,437.896423 1136.706665,444.652313 1136.706665,452.328094 
	C1139.229614,449.166870 1141.044434,446.596863 1143.154785,444.298340 
	C1153.933228,432.559845 1167.675903,427.681091 1183.276001,426.972382 
	C1195.958862,426.396179 1207.879150,428.877136 1218.418457,436.057770 
	C1231.242065,444.794647 1238.169067,457.565491 1240.863770,472.494415 
	C1242.297363,480.436829 1242.846436,488.627502 1242.908447,496.712921 
	C1243.138672,526.695374 1243.000366,556.680664 1243.000610,586.664856 
	C1243.000610,588.293457 1243.000732,589.922058 1243.000732,591.773193 
	C1229.264038,591.773193 1215.863892,591.773193 1202.000610,591.773193 
	C1202.000610,590.062744 1202.000610,588.450073 1202.000610,586.837341 
	C1202.000366,556.519958 1202.128662,526.201721 1201.920532,495.885773 
	C1201.858887,486.902985 1199.951416,478.117462 1193.632568,471.208496 
	C1180.259644,456.586884 1154.998535,459.429810 1144.036377,476.738434 
	C1139.368408,484.108795 1136.937622,492.189453 1136.964844,501.045410 
	C1137.057373,531.173279 1137.000122,561.301575 1137.000122,591.999695 
	C1130.359009,591.999695 1123.929443,591.999695 1116.999878,591.999695 
z"/>
<path fill="#010101" opacity="1.000000" stroke="none" 
	d="
M561.855835,526.555786 
	C558.766479,537.643677 554.244385,547.469604 544.832214,553.995728 
	C524.406921,568.158081 495.555267,559.740234 486.199066,536.512512 
	C479.250092,519.261108 479.764008,501.624939 487.434448,484.655701 
	C494.619873,468.759521 508.716644,460.576233 526.677673,462.140839 
	C542.475830,463.516998 553.700195,471.891724 560.004211,489.484711 
	C564.309570,501.499969 563.846619,513.787537 561.855835,526.555786 
z"/>
<path fill="#000000" opacity="1.000000" stroke="none" 
	d="
M482.965424,448.967590 
	C482.967407,449.646362 482.827057,450.191315 482.350922,452.040009 
	C482.236176,450.149109 482.202667,449.596893 482.351807,448.807587 
	C482.534485,448.570465 482.823090,448.833801 482.965424,448.967590 
z"/>
<path fill="#010101" opacity="1.000000" stroke="none" 
	d="
M1013.791992,459.987610 
	C1027.093506,463.174896 1038.270630,472.203735 1040.919800,492.615356 
	C1016.732117,492.615356 992.589417,492.615356 968.440735,492.615356 
	C967.556824,471.700378 990.998291,454.588989 1013.791992,459.987610 
z"/>
<path fill="#010101" opacity="1.000000" stroke="none" 
	d="
M728.223877,546.129150 
	C714.648682,563.124146 688.552856,565.020020 674.221741,555.056580 
	C664.841919,548.535400 659.231323,539.617371 656.732361,528.542786 
	C653.170837,512.759033 653.854492,497.390106 661.670471,482.953644 
	C669.884460,467.781921 685.025146,459.808807 701.599182,462.111877 
	C718.706787,464.489044 730.515381,474.394989 735.666870,490.608795 
	C741.772278,509.824890 740.116943,528.644287 728.223877,546.129150 
z"/>
</svg>