<svg version="1.1" id="Layer_1" xmlns="http://www.w3.org/2000/svg" xmlns:xlink="http://www.w3.org/1999/xlink" x="0px" y="0px"
	 width="100%" viewBox="0 0 1024 672" enable-background="new 0 0 1024 672" xml:space="preserve">
<path fill="#000000" opacity="1.000000" stroke="none" 
	d="
M207.217911,395.087524 
	C187.968994,389.166290 174.739838,377.815155 170.190033,357.861145 
	C168.042679,348.443481 167.980545,348.304047 177.373077,347.219238 
	C182.653870,346.609344 188.004745,346.619965 193.320450,346.292664 
	C195.924347,346.132294 196.663605,347.684998 197.218155,349.861969 
	C202.499207,370.593658 227.296860,380.961456 246.088364,370.241150 
	C252.717361,366.459381 256.009064,360.630707 255.712189,352.875977 
	C255.430023,345.506256 251.038712,341.414673 244.657639,338.982971 
	C233.268387,334.642822 221.169739,332.850067 209.549271,329.327911 
	C199.926422,326.411255 190.512207,323.082306 183.318375,315.576599 
	C167.469650,299.040802 168.966263,272.660339 186.558884,257.769684 
	C207.981659,239.637161 251.084412,242.030167 270.338867,262.418640 
	C276.705139,269.159851 280.229797,277.307892 282.248138,286.232483 
	C283.089233,289.951477 281.982727,291.950745 277.922272,291.989410 
	C271.593567,292.049652 265.263428,292.163635 258.939178,292.397034 
	C256.341034,292.492981 255.163345,291.270386 254.139877,289.016754 
	C246.271057,271.690063 225.925919,264.930359 209.040207,273.966095 
	C203.734589,276.805176 201.100906,281.221283 201.037628,287.344421 
	C200.975327,293.372284 203.653183,297.509155 208.895935,300.148071 
	C218.823334,305.145111 229.799042,306.758453 240.334244,309.781342 
	C247.703033,311.895691 254.940384,314.266693 261.988739,317.340576 
	C285.528076,327.606415 287.667511,352.516449 281.683197,368.732422 
	C276.139740,383.753723 264.174408,391.270020 249.515915,395.269714 
	C235.573395,399.074127 221.571152,399.212738 207.217911,395.087524 
z"/>
<path fill="#000000" opacity="1.000000" stroke="none" 
	d="
M294.766174,304.001953 
	C294.765717,299.838470 294.974792,296.159637 294.713104,292.514618 
	C294.408478,288.271362 295.806305,286.398712 300.330261,286.670044 
	C305.640472,286.988556 310.996002,286.962585 316.310028,286.677856 
	C320.744232,286.440308 322.982300,287.779297 322.323547,292.548889 
	C322.148010,293.819580 322.421997,295.152374 322.487122,296.408875 
	C324.091492,296.980316 324.881165,295.873291 325.699829,295.194000 
	C356.320923,269.788025 393.200928,292.406555 400.388489,320.071045 
	C405.633423,340.258545 404.851105,359.896240 393.019318,377.646790 
	C378.265961,399.780365 350.016266,404.163422 328.656219,388.343811 
	C326.816345,386.981171 324.979614,385.614288 322.303741,383.627350 
	C322.303741,388.847961 322.303925,393.260498 322.303711,397.673065 
	C322.303162,409.330841 322.177368,420.990692 322.372192,432.645203 
	C322.437042,436.526825 321.110077,438.087738 317.229553,437.966064 
	C311.905640,437.799164 306.561951,437.723297 301.246216,437.992950 
	C296.341858,438.241760 294.650116,436.519196 294.672577,431.404602 
	C294.857971,389.104248 294.771606,346.802704 294.766174,304.001953 
M362.378479,312.054565 
	C350.801605,305.554260 340.072021,307.433441 330.683502,316.634369 
	C319.397339,327.695038 320.153320,352.508362 328.598236,363.050842 
	C339.227875,376.320709 356.641052,377.420898 367.695648,365.703186 
	C378.219543,354.548065 380.497986,323.049103 362.378479,312.054565 
z"/>
<path fill="#000000" opacity="1.000000" stroke="none" 
	d="
M590.846924,324.820038 
	C586.345886,328.165436 586.676941,331.129242 589.662842,335.394379 
	C602.076355,353.126251 614.087769,371.140045 626.191833,389.087433 
	C627.252625,390.660431 628.950806,392.045135 628.487854,395.236969 
	C621.829102,395.236969 615.029114,394.675964 608.364136,395.384338 
	C600.681335,396.200867 596.258240,393.285614 592.378662,386.739288 
	C585.680908,375.437653 577.973633,364.733368 570.655090,353.801819 
	C569.747375,352.445984 569.116821,350.815979 567.004517,349.782013 
	C561.589844,355.356415 554.467957,359.600494 555.865601,369.645386 
	C556.775085,376.182251 555.949951,382.948914 556.091492,389.608612 
	C556.174500,393.512421 554.895752,395.478210 550.622742,395.276489 
	C545.304626,395.025360 539.955322,395.019684 534.638489,395.286469 
	C530.190674,395.509674 528.510376,394.064606 528.558594,389.350739 
	C528.778320,367.866058 528.654724,346.377869 528.655090,324.890961 
	C528.655457,300.905579 528.768799,276.919220 528.563110,252.935608 
	C528.521729,248.113754 530.034241,246.383255 534.839844,246.720795 
	C539.812439,247.070068 544.845459,247.061508 549.820435,246.732056 
	C554.760437,246.404968 556.153320,248.570938 556.127563,253.170380 
	C556.000671,275.822388 556.067749,298.475525 556.108032,321.128204 
	C556.111206,322.890778 555.657532,324.747986 556.937073,326.895691 
	C561.608398,321.994629 566.144592,317.234711 570.681458,312.475433 
	C577.918274,304.883789 585.193787,297.328430 592.367493,289.677612 
	C594.335876,287.578308 596.505432,286.652130 599.406982,286.709198 
	C606.566406,286.849976 613.730835,286.715515 620.892761,286.765778 
	C622.302979,286.775665 623.903442,286.277222 625.526733,288.184235 
	C614.059326,300.296417 602.572021,312.429596 590.846924,324.820038 
z"/>
<path fill="#000000" opacity="1.000000" stroke="none" 
	d="
M676.000000,349.133240 
	C667.167542,349.142944 658.835144,349.146942 650.502686,349.165466 
	C648.226379,349.170532 645.840210,349.150726 646.612427,352.583710 
	C650.993591,372.060608 668.250183,379.650146 682.703003,373.589966 
	C687.342346,371.644653 690.785522,368.396179 693.048706,363.888855 
	C693.945679,362.102539 694.770447,360.041962 697.289001,360.293579 
	C704.866394,361.050598 712.589905,360.208618 720.644348,362.395844 
	C719.855103,369.067047 717.137878,374.861664 712.938416,379.815887 
	C698.790405,396.506439 673.510742,402.429779 651.633911,394.425201 
	C631.442322,387.037262 619.221252,368.869965 618.587524,346.051117 
	C618.269165,334.590881 619.006348,323.443634 623.900146,312.864227 
	C635.296082,288.228149 664.684875,277.556885 691.445923,288.096893 
	C709.772522,295.314941 718.065857,309.739258 721.243713,328.092163 
	C722.154541,333.352325 722.305603,338.660645 722.371460,343.998932 
	C722.420776,347.998138 720.765381,349.213165 716.995544,349.178497 
	C703.497986,349.054321 689.998657,349.131775 676.000000,349.133240 
M678.888428,307.442352 
	C664.007202,303.736511 651.807312,310.270020 647.812317,323.969635 
	C646.912903,327.054016 647.282104,328.767059 650.992859,328.747192 
	C664.637268,328.674316 678.282227,328.705872 691.926941,328.684631 
	C692.758850,328.683319 693.599060,328.585052 694.102844,327.757874 
	C693.498291,318.023865 689.005737,311.791687 678.888428,307.442352 
z"/>
<path fill="#000000" opacity="1.000000" stroke="none" 
	d="
M510.261993,306.844727 
	C523.526794,330.334412 523.915100,353.580505 509.147491,375.941162 
	C497.311401,393.863037 473.196198,401.649170 450.983704,396.117645 
	C428.762238,390.583862 413.696350,373.717896 410.596771,351.676971 
	C408.484528,336.656921 410.158417,322.407532 417.956757,309.301514 
	C437.390289,276.641266 489.072693,275.370300 510.261993,306.844727 
M477.965088,311.433655 
	C461.934052,303.636658 445.585205,309.870392 439.747772,326.311066 
	C436.308716,335.996826 436.057983,346.021484 439.706085,355.671661 
	C443.445343,365.562805 450.766113,371.876038 461.430573,373.378784 
	C471.067291,374.736725 479.130341,371.290375 485.355408,363.852234 
	C489.656250,358.713257 491.852814,352.539032 492.274261,345.968201 
	C493.137878,332.504395 491.311523,319.933075 477.965088,311.433655 
z"/>
<path fill="#000000" opacity="1.000000" stroke="none" 
	d="
M772.853882,309.668091 
	C763.591797,313.573883 759.586975,320.912231 759.363342,329.944580 
	C758.889221,349.092987 759.068420,368.257599 758.981445,387.415588 
	C758.945862,395.247986 758.947937,395.256927 751.289368,395.262024 
	C745.957825,395.265564 740.625427,395.175720 735.295166,395.252472 
	C732.170349,395.297455 730.784302,394.040802 730.789917,390.810089 
	C730.847717,357.654694 730.857117,324.499146 730.803467,291.343750 
	C730.797852,287.883850 732.222046,286.613068 735.606812,286.704376 
	C741.267334,286.856995 746.948425,286.977539 752.595764,286.662384 
	C757.192932,286.405762 759.646973,287.691864 759.032043,292.719940 
	C758.921326,293.625671 759.334473,294.595459 759.593079,296.015472 
	C764.156250,293.227997 767.907410,289.942413 772.414856,287.872589 
	C799.740051,275.325226 828.232178,293.343628 829.168823,324.384613 
	C829.836853,346.523865 829.278870,368.699097 829.369934,390.857849 
	C829.383179,394.078217 828.181274,395.346863 824.973938,395.275574 
	C819.145508,395.145996 813.302185,395.036041 807.483948,395.313446 
	C803.081665,395.523315 801.679443,393.815033 801.721741,389.501556 
	C801.889893,372.342316 801.783447,355.180359 801.772278,338.019409 
	C801.770508,335.353760 801.780212,332.686859 801.708130,330.022644 
	C801.253479,313.225006 789.301025,304.630951 772.853882,309.668091 
z"/>
</svg>